#N canvas 1 187 219 539 10;
#X obj 10 299 readsf~ 2;
#X msg 10 190 open \$1;
#X obj 9 124 openpanel;
#X obj 108 395 - 100;
#X obj 10 375 outlet~;
#X obj 109 442 outlet;
#X obj 6 8 inlet;
#X msg 67 231 1;
#X obj 6 55 bng 15 250 50 0 empty empty empty 17 7 0 10 -262144 -1
-1;
#X obj 86 56 bng 15 250 50 0 empty empty empty 17 7 0 10 -262144 -1
-1;
#X msg 96 231 0;
#X obj 47 56 bng 15 250 50 0 empty empty empty 17 7 0 10 -262144 -1
-1;
#X obj 96 80 del 500;
#X obj 8 169 symbol;
#X msg 7 147 bang;
#X obj 6 30 route open start stop;
#X obj 159 442 outlet;
#X obj 59 375 outlet~;
#X obj 108 375 env~;
#X floatatom 109 417 5 0 0 0 - - -;
#X obj 18 338 +~;
#X connect 0 0 4 0;
#X connect 0 0 20 0;
#X connect 0 1 17 0;
#X connect 0 1 20 1;
#X connect 1 0 0 0;
#X connect 2 0 13 1;
#X connect 2 0 14 0;
#X connect 3 0 19 0;
#X connect 6 0 15 0;
#X connect 7 0 0 0;
#X connect 8 0 2 0;
#X connect 9 0 10 0;
#X connect 9 0 12 0;
#X connect 10 0 0 0;
#X connect 11 0 7 0;
#X connect 12 0 14 0;
#X connect 13 0 1 0;
#X connect 13 0 16 0;
#X connect 14 0 13 0;
#X connect 15 0 8 0;
#X connect 15 1 11 0;
#X connect 15 2 9 0;
#X connect 18 0 3 0;
#X connect 19 0 5 0;
#X connect 20 0 18 0;
