#N canvas 622 176 659 533 10;
#X text 10 7 pd-dubplate-operator m-onz (depr0g) github.com/m-onz;
#X obj 14 108 channelstrip, f 22;
#X msg 14 62 open;
#X obj 101 182 vu 15 120 empty empty -1 -8 0 10 -66577 -1 1 0;
#X symbolatom 143 133 40 0 0 0 - - -;
#X obj 15 369 *~ 0.9;
#X obj 58 370 *~ 0.9;
#X msg 55 62 start;
#X msg 112 71 stop;
#X obj 73 444 dac~;
#X connect 1 0 5 0;
#X connect 1 1 6 0;
#X connect 1 2 3 0;
#X connect 1 3 4 0;
#X connect 2 0 1 0;
#X connect 5 0 9 0;
#X connect 6 0 9 1;
#X connect 7 0 1 0;
#X connect 8 0 1 0;
