#N canvas 553 86 702 655 10;
#X text 10 7 pd-dubplate-operator m-onz (depr0g) github.com/m-onz;
#X obj 14 108 channelstrip, f 22;
#X msg 14 62 open;
#X obj 16 182 vu 15 120 empty empty -1 -8 0 10 -66577 -1 1 0;
#X symbolatom 14 511 40 0 0 0 - - -;
#X obj 17 385 *~ 0.9;
#X obj 60 386 *~ 0.9;
#X msg 50 61 start;
#X msg 92 62 stop;
#X obj 18 415 dac~, f 8;
#X obj 16 356 xfade.mmb~, f 73;
#X obj 155 450 hsl 128 15 0 1 0 0 empty empty empty -2 -8 0 10 -262144
-1 -1 12700 1;
#X msg 152 474 \$1 10;
#X obj 444 338 line~;
#X obj 328 87 channelstrip, f 22;
#X msg 328 41 open;
#X obj 338 172 vu 15 120 empty empty -1 -8 0 10 -66577 -1 1 0;
#X symbolatom 260 511 40 0 0 0 - - -;
#X msg 364 40 start;
#X msg 406 41 stop;
#X obj 328 108 +~;
#X floatatom 438 182 0 0 100 0 - - -;
#X text 479 182 liveness \, 0-100;
#X floatatom 445 205 4 0 5000 0 - - -;
#X floatatom 456 227 0 0 100 0 - - -;
#X text 493 203 crossover frequency \, Hz.;
#X text 492 229 HF damping \, percent;
#X obj 437 251 hsl 128 15 0 1 0 0 empty empty empty -2 -8 0 10 -262144
-1 -1 7500 1;
#X obj 578 299 tgl 15 0 empty empty empty 17 7 0 10 -262144 -1 -1 1
1;
#X msg 580 278 1;
#X obj 580 255 loadbang;
#X obj 326 318 reverb, f 23;
#X floatatom 82 178 0 0 100 0 - - -;
#X text 123 178 liveness \, 0-100;
#X floatatom 89 201 4 0 5000 0 - - -;
#X floatatom 100 223 0 0 100 0 - - -;
#X text 137 199 crossover frequency \, Hz.;
#X text 136 225 HF damping \, percent;
#X obj 129 251 hsl 128 15 0 1 0 0 empty empty empty -2 -8 0 10 -262144
-1 -1 7500 1;
#X obj 270 299 tgl 15 0 empty empty empty 17 7 0 10 -262144 -1 -1 1
1;
#X msg 272 278 1;
#X obj 272 255 loadbang;
#X obj 18 318 reverb, f 23;
#X obj 17 134 +~;
#X text 159 249 dry/wet;
#X text 476 250 dry/wet;
#X text 256 489 RIGHT;
#X text 12 490 LEFT;
#X text 196 424 FADER;
#X connect 1 0 43 0;
#X connect 1 1 43 1;
#X connect 1 2 3 0;
#X connect 1 3 4 0;
#X connect 2 0 1 0;
#X connect 5 0 9 0;
#X connect 6 0 9 1;
#X connect 7 0 1 0;
#X connect 8 0 1 0;
#X connect 10 0 5 0;
#X connect 10 0 6 0;
#X connect 11 0 12 0;
#X connect 12 0 13 0;
#X connect 13 0 10 2;
#X connect 14 0 20 0;
#X connect 14 1 20 1;
#X connect 14 2 16 0;
#X connect 14 3 17 0;
#X connect 15 0 14 0;
#X connect 18 0 14 0;
#X connect 19 0 14 0;
#X connect 20 0 31 0;
#X connect 21 0 31 1;
#X connect 23 0 31 2;
#X connect 24 0 31 3;
#X connect 27 0 31 4;
#X connect 28 0 31 5;
#X connect 29 0 28 0;
#X connect 30 0 29 0;
#X connect 31 0 10 1;
#X connect 32 0 42 1;
#X connect 34 0 42 2;
#X connect 35 0 42 3;
#X connect 38 0 42 4;
#X connect 39 0 42 5;
#X connect 40 0 39 0;
#X connect 41 0 40 0;
#X connect 42 0 10 0;
#X connect 43 0 42 0;
