#N canvas 1 67 450 300 10;
#X obj 10 7 inlet~;
#X obj 71 213 outlet~;
#X obj 101 140 rev3~ 100 90 3000 20;
#X obj 72 164 xfade.mmb~;
#X obj 151 60 hsl 128 15 0 1 0 0 empty empty empty -2 -8 0 10 -262144
-1 -1 0 1;
#X msg 139 83 \$1 10;
#X obj 139 107 line~;
#X obj 71 187 *~;
#X obj 85 81 tgl 15 0 empty empty empty 17 7 0 10 -262144 -1 -1 1 1
;
#X obj 56 7 inlet;
#X obj 94 7 inlet;
#X obj 135 7 inlet;
#X obj 173 7 inlet;
#X obj 213 6 inlet;
#X msg 301 32 1;
#X obj 299 9 loadbang;
#X connect 0 0 2 0;
#X connect 0 0 3 0;
#X connect 2 0 3 1;
#X connect 3 0 7 0;
#X connect 4 0 5 0;
#X connect 5 0 6 0;
#X connect 6 0 3 2;
#X connect 7 0 1 0;
#X connect 8 0 7 1;
#X connect 9 0 2 3;
#X connect 10 0 2 4;
#X connect 11 0 2 5;
#X connect 12 0 4 0;
#X connect 13 0 8 0;
#X connect 14 0 8 0;
#X connect 15 0 14 0;
